<?xml version="1.0" ?><!-- Uploaded to: SVG Repo, www.svgrepo.com, Generator: SVG Repo Mixer Tools -->
<svg width="800px" height="800px" viewBox="0 0 64 64" data-name="Lovely Valentine's day" id="Lovely_Valentine_s_day" xmlns="http://www.w3.org/2000/svg"><defs><style>.cls-1{fill:#e29e9a;}.cls-2{fill:#268484;}.cls-3{fill:#623905;}.cls-4{fill:#f6e3a6;}.cls-5{fill:#fff0cc;}.cls-6{fill:#d26274;}</style></defs><title/><circle class="cls-1" cx="32" cy="32" r="28"/><rect class="cls-2" height="30" rx="2.219" width="32" x="16" y="22"/><path class="cls-3" d="M45.781,53H18.219A3.223,3.223,0,0,1,15,49.781V24.219A3.223,3.223,0,0,1,18.219,21H45.781A3.223,3.223,0,0,1,49,24.219V49.781A3.223,3.223,0,0,1,45.781,53ZM18.219,23A1.221,1.221,0,0,0,17,24.219V49.781A1.221,1.221,0,0,0,18.219,51H45.781A1.221,1.221,0,0,0,47,49.781V24.219A1.221,1.221,0,0,0,45.781,23Z"/><rect class="cls-4" height="20" rx="2" width="8" x="28" y="32"/><path class="cls-3" d="M34,53H30a3,3,0,0,1-3-3V34a3,3,0,0,1,3-3h4a3,3,0,0,1,3,3V50A3,3,0,0,1,34,53ZM30,33a1,1,0,0,0-1,1V50a1,1,0,0,0,1,1h4a1,1,0,0,0,1-1V34a1,1,0,0,0-1-1Z"/><rect class="cls-5" height="14" rx="2" width="4" x="30" y="35"/><rect class="cls-6" height="13" rx="1.803" width="38" x="13" y="19"/><path class="cls-3" d="M49.2,33H14.8A2.806,2.806,0,0,1,12,30.2V20.8A2.806,2.806,0,0,1,14.8,18H49.2A2.806,2.806,0,0,1,52,20.8V30.2A2.806,2.806,0,0,1,49.2,33ZM14.8,20a.8.8,0,0,0-.8.8V30.2a.8.8,0,0,0,.8.8H49.2a.8.8,0,0,0,.8-.8V20.8a.8.8,0,0,0-.8-.8Z"/><rect class="cls-4" height="13" rx="2" width="12" x="26" y="19"/><path class="cls-3" d="M36,33H28a3,3,0,0,1-3-3V21a3,3,0,0,1,3-3h8a3,3,0,0,1,3,3v9A3,3,0,0,1,36,33ZM28,20a1,1,0,0,0-1,1v9a1,1,0,0,0,1,1h8a1,1,0,0,0,1-1V21a1,1,0,0,0-1-1Z"/><rect class="cls-5" height="6.5" rx="2" width="6" x="29" y="22.25"/><path class="cls-6" d="M25.862,39.856a1.833,1.833,0,0,1-.545,1.312L24.005,42.48l-1.3,1.3a1,1,0,0,1-1.416,0l-1.3-1.3-1.24-1.24a1.927,1.927,0,0,1-.275-2.458,1.858,1.858,0,0,1,2.828-.239l.693.694.613-.613a1.948,1.948,0,0,1,2.347-.357A1.832,1.832,0,0,1,25.862,39.856Z"/><path class="cls-3" d="M22,45.076a1.987,1.987,0,0,1-1.416-.588l-2.537-2.541a2.936,2.936,0,0,1-.381-3.748A2.858,2.858,0,0,1,22,37.824a2.923,2.923,0,0,1,3.472-.415,2.852,2.852,0,0,1,.546,4.472l-2.6,2.607A1.987,1.987,0,0,1,22,45.076ZM19.993,39c-.023,0-.047,0-.07,0a.857.857,0,0,0-.634.363.937.937,0,0,0,.171,1.166L22,43.076l2.611-2.615a.85.85,0,0,0-.165-1.336.947.947,0,0,0-1.127.207l-.612.612a1.029,1.029,0,0,1-1.414,0L20.6,39.25A.856.856,0,0,0,19.993,39Z"/><path class="cls-6" d="M45.862,39.856a1.833,1.833,0,0,1-.545,1.312L44.005,42.48l-1.3,1.3a1,1,0,0,1-1.416,0l-1.3-1.3-1.24-1.24a1.927,1.927,0,0,1-.275-2.458,1.858,1.858,0,0,1,2.828-.239l.693.694.613-.613a1.948,1.948,0,0,1,2.347-.357A1.832,1.832,0,0,1,45.862,39.856Z"/><path class="cls-3" d="M42,45.076a1.987,1.987,0,0,1-1.416-.588l-2.537-2.541a2.936,2.936,0,0,1-.381-3.748A2.858,2.858,0,0,1,42,37.824a2.922,2.922,0,0,1,3.472-.415,2.852,2.852,0,0,1,.546,4.472l-2.6,2.607A1.987,1.987,0,0,1,42,45.076ZM39.993,39c-.023,0-.047,0-.07,0a.857.857,0,0,0-.634.363.937.937,0,0,0,.171,1.166L42,43.076l2.611-2.615a.85.85,0,0,0-.165-1.336.946.946,0,0,0-1.127.207l-.612.612a1.029,1.029,0,0,1-1.414,0L40.6,39.25A.856.856,0,0,0,39.993,39Z"/><path class="cls-4" d="M31,19H18V14.514a2,2,0,0,1,2.45-1.949L31,15Z"/><path class="cls-3" d="M32,20H17V14.514a3,3,0,0,1,3.675-2.923L32,14.205ZM19,18H30V15.8L20.226,13.54A1,1,0,0,0,19,14.514Z"/><path class="cls-4" d="M45,19H32V15l10.55-2.435A2,2,0,0,1,45,14.514Z"/><path class="cls-3" d="M46,20H31V14.205l11.325-2.614A3,3,0,0,1,46,14.514ZM33,18H44V14.514a1,1,0,0,0-1.226-.974L33,15.8Z"/><rect class="cls-4" height="4" rx="1" width="5" x="29" y="14"/><path class="cls-3" d="M33,19H30a2,2,0,0,1-2-2V15a2,2,0,0,1,2-2h3a2,2,0,0,1,2,2v2A2,2,0,0,1,33,19Zm-3-4v2h3V15Z"/></svg>